<svg width="45" height="45" viewBox="0 0 45 45" fill="none" xmlns="http://www.w3.org/2000/svg">
<path d="M39.375 5.6438H5.625C3.5625 5.6438 1.875 7.3313 1.875 9.3938V15C1.875 16.0313 2.71875 16.875 3.75 16.875C4.78125 16.875 5.625 16.0313 5.625 15V11.2313C5.625 10.2 6.46875 9.3563 7.5 9.3563H37.5C38.5312 9.3563 39.375 10.2 39.375 11.2313V33.7875C39.375 34.8188 38.5312 35.6625 37.5 35.6625H7.5C6.46875 35.6625 5.625 34.8188 5.625 33.7875V30C5.625 28.9688 4.78125 28.125 3.75 28.125C2.71875 28.125 1.875 28.9688 1.875 30V35.6438C1.875 37.6875 3.54375 39.3563 5.5875 39.3563H39.375C41.4375 39.3563 43.125 37.6688 43.125 35.6063V9.3938C43.125 7.3313 41.4375 5.6438 39.375 5.6438ZM22.2188 28.4063L27.45 23.175C27.825 22.8 27.825 22.2188 27.45 21.8438L22.2188 16.6125C22.0895 16.4795 21.9233 16.3882 21.7416 16.3505C21.56 16.3128 21.3712 16.3305 21.1997 16.4011C21.0282 16.4717 20.8817 16.5921 20.7793 16.7468C20.6768 16.9015 20.6231 17.0833 20.625 17.2688V20.625H3.75C2.71875 20.625 1.875 21.4688 1.875 22.5C1.875 23.5313 2.71875 24.375 3.75 24.375H20.625V27.7313C20.625 28.575 21.6375 28.9875 22.2188 28.4063Z" fill="white"/>
</svg>
