<svg width="25" height="24" viewBox="0 0 25 24" fill="none" xmlns="http://www.w3.org/2000/svg">
<path d="M24.6325 4.115L20.8837 0.366251C20.7679 0.249948 20.6301 0.157713 20.4785 0.0948567C20.3268 0.0320002 20.1642 -0.000236811 20 1.30959e-06H5C4.83582 -0.000236811 4.67322 0.0320002 4.52155 0.0948567C4.36988 0.157713 4.23213 0.249948 4.11625 0.366251L0.367503 4.115C0.250713 4.23084 0.158088 4.36873 0.0950023 4.52065C0.0319166 4.67257 -0.000374173 4.8355 3.27106e-06 5V21.25C3.27106e-06 22.6287 1.12125 23.75 2.5 23.75H22.5C23.8787 23.75 25 22.6287 25 21.25V5C25.0004 4.8355 24.9681 4.67257 24.905 4.52065C24.8419 4.36873 24.7493 4.23084 24.6325 4.115ZM5.5175 2.5H19.4825L20.7325 3.75H4.2675L5.5175 2.5ZM2.5 21.25V6.25H22.5L22.5025 21.25H2.5Z" fill="white"/>
<path d="M15 8.74976H10V12.4998H6.25L12.5 18.7498L18.75 12.4998H15V8.74976Z" fill="white"/>
</svg>
