<svg width="70" height="70" viewBox="0 0 70 70" fill="none" xmlns="http://www.w3.org/2000/svg">
<circle cx="35.6999" cy="35.7" r="33.6" fill="white"/>
<path d="M35 0C15.68 0 0 15.68 0 35C0 54.32 15.68 70 35 70C54.32 70 70 54.32 70 35C70 15.68 54.32 0 35 0ZM35 10.5C40.81 10.5 45.5 15.19 45.5 21C45.5 26.81 40.81 31.5 35 31.5C29.19 31.5 24.5 26.81 24.5 21C24.5 15.19 29.19 10.5 35 10.5ZM35 60.2C30.8415 60.2 26.7476 59.1709 23.0835 57.2045C19.4193 55.238 16.2987 52.3954 14 48.93C14.105 41.965 28 38.15 35 38.15C41.965 38.15 55.895 41.965 56 48.93C53.7013 52.3954 50.5807 55.238 46.9165 57.2045C43.2524 59.1709 39.1585 60.2 35 60.2Z" fill="black"/>
</svg>
