<svg width="67" height="67" viewBox="0 0 67 67" fill="none" xmlns="http://www.w3.org/2000/svg">
<path d="M25.125 11.1667C12.7858 11.1667 2.79163 21.1609 2.79163 33.5001C2.79163 45.8393 12.7858 55.8334 25.125 55.8334C37.4641 55.8334 47.4583 45.8393 47.4583 33.5001C47.4583 21.1609 37.4641 11.1667 25.125 11.1667ZM25.125 50.2501C15.8845 50.2501 8.37496 42.7405 8.37496 33.5001C8.37496 24.2597 15.8845 16.7501 25.125 16.7501C34.3654 16.7501 41.875 24.2597 41.875 33.5001C41.875 42.7405 34.3654 50.2501 25.125 50.2501ZM33.5 29.3126H27.9166V43.2709H22.3333V29.3126H16.75V25.1251H33.5V29.3126ZM56.5312 10.4688L64.2083 13.9584L56.5312 17.448L53.0416 25.1251L49.552 17.448L41.875 13.9584L49.552 10.4688L53.0416 2.79175L56.5312 10.4688ZM56.5312 49.5522L64.2083 53.0418L56.5312 56.5313L53.0416 64.2084L49.552 56.5313L41.875 53.0418L49.552 49.5522L53.0416 41.8751L56.5312 49.5522Z" fill="black"/>
</svg>
